<?xml version="1.0" encoding="utf-8"?>
<!-- Generator: Adobe Illustrator 24.1.1, SVG Export Plug-In . SVG Version: 6.00 Build 0)  -->
<svg version="1.1" xmlns="http://www.w3.org/2000/svg" xmlns:xlink="http://www.w3.org/1999/xlink" x="0px" y="0px"
	 viewBox="0 0 100 100" style="enable-background:new 0 0 100 100;" xml:space="preserve">
<style type="text/css">
	.st0{display:none;}
	.st1{display:inline;}
	.st2{display:inline;fill:#FFFFFF;}
	.st3{display:inline;fill:#FFC100;}
	.st4{display:inline;fill:url(#SVGID_1_);}
	.st5{fill:url(#SVGID_2_);}
</style>
<g id="Capa_1" class="st0">
	<g id="Capa_3" class="st1">
	</g>
	
		<image style="display:inline;overflow:visible;" width="512" height="512" xlink:href="4F30AF4E.jpg"  transform="matrix(0.1953 0 0 0.1953 0 0)">
	</image>
</g>
<g id="Capa_2" class="st0">
	<path class="st2" d="M71.9,56.6c-0.1,0.2-0.3,0.3-0.4,0.5c-0.3,0.3-0.5,0.6-0.9,1L44.3,84.3c-4.9,5-13,4.9-17.9-0.1
		c-4.8-5-4.5-13,0.5-17.9L44,49.2c0,0,0,0,0-0.1L26.6,31.8c-2.5-2.5-3.7-5.7-3.7-8.9c0-3.2,1.2-6.4,3.7-8.9c4.9-4.9,12.9-4.9,17.8,0
		l25.7,25.7l0.6,0.6C75.1,44.7,75.5,51.7,71.9,56.6z"/>
</g>
<g id="Capa_4" class="st0">
	<rect x="-43.6" y="-42.3" class="st3" width="198.3" height="165.7"/>
</g>
<g id="Capa_3_1_" class="st0">
	<radialGradient id="SVGID_1_" cx="50" cy="50" r="50" gradientUnits="userSpaceOnUse">
		<stop  offset="0.5" style="stop-color:#FFFFFF;stop-opacity:0"/>
		<stop  offset="1" style="stop-color:#FFFFFF"/>
	</radialGradient>
	<path class="st4" d="M80,0L20,0C9,0,0,9,0,20l0,60c0,11,9,20,20,20h60c11,0,20-9,20-20V20C100,9,91,0,80,0z"/>
</g>
<g id="Capa_5">
	<linearGradient id="SVGID_2_" gradientUnits="userSpaceOnUse" x1="0" y1="50" x2="100" y2="50">
		<stop  offset="0" style="stop-color:#FFFFFF;stop-opacity:0"/>
		<stop  offset="1" style="stop-color:#FFFFFF"/>
	</linearGradient>
	<rect class="st5" width="100" height="100"/>
</g>
</svg>
