<?xml version="1.0" encoding="utf-8"?>
<!-- Generator: Adobe Illustrator 24.1.1, SVG Export Plug-In . SVG Version: 6.00 Build 0)  -->
<svg version="1.1" id="Capa_1" xmlns="http://www.w3.org/2000/svg" xmlns:xlink="http://www.w3.org/1999/xlink" x="0px" y="0px"
	 viewBox="0 0 655 540" style="enable-background:new 0 0 655 540;" xml:space="preserve">
<style type="text/css">
	.st0{fill:#FFFFFF;}
	.st1{display:none;fill:#FFFFFF;}
</style>
<path class="st0" d="M615.8,450H39.2C17.5,450,0,432.5,0,410.8v0C0,233.6,143.6,90,320.8,90h13.4C511.4,90,655,233.6,655,410.8v0
	C655,432.5,637.5,450,615.8,450z"/>
<path class="st1" d="M-284,768h-575c-22.1,0-40-17.9-40-40V268c0-22.1,17.9-40,40-40h575c22.1,0,40,17.9,40,40v460
	C-244,750.1-261.9,768-284,768z"/>
<path class="st1" d="M-284,1352h-575c-22.1,0-40-17.9-40-40V852c0-22.1,17.9-40,40-40h575c22.1,0,40,17.9,40,40v460
	C-244,1334.1-261.9,1352-284,1352z"/>
<path class="st1" d="M-283,1945h-575c-22.1,0-40-17.9-40-40v-460c0-22.1,17.9-40,40-40h575c22.1,0,40,17.9,40,40v460
	C-243,1927.1-260.9,1945-283,1945z"/>
<path class="st1" d="M-284,2258.9h-575c-22.1,0-40-17.9-40-40v-190c0-22.1,17.9-40,40-40h575c22.1,0,40,17.9,40,40v190
	C-244,2241-261.9,2258.9-284,2258.9z"/>
</svg>
