<?xml version="1.0" encoding="utf-8"?>
<!-- Generator: Adobe Illustrator 24.1.1, SVG Export Plug-In . SVG Version: 6.00 Build 0)  -->
<svg version="1.1" id="Capa_1" xmlns="http://www.w3.org/2000/svg" xmlns:xlink="http://www.w3.org/1999/xlink" x="0px" y="0px"
	 viewBox="0 0 100 100" style="enable-background:new 0 0 100 100;" xml:space="preserve">
<style type="text/css">
	.st0{display:none;}
	.st1{display:inline;fill:#FF2D0A;}
	.st2{display:none;fill:#FF3DFF;}
	.st3{fill:#FFFFFF;}
</style>
<g id="Capa_1_1_" class="st0">
	<path class="st1" d="M103.1,100H-3.4c-4.1,0-7.4-3.3-7.4-7.4V7.4c0-4.1,3.3-7.4,7.4-7.4h106.5c4.1,0,7.4,3.3,7.4,7.4v85.2
		C110.5,96.7,107.2,100,103.1,100z"/>
</g>
<g id="Capa_2_1_" class="st0">
	
		<image style="display:inline;overflow:visible;enable-background:new    ;" width="1077" height="718" xlink:href="27F196CA.jpg"  transform="matrix(0.1223 0 0 0.1223 -17.0334 6.1104)">
	</image>
	
		<image style="display:inline;overflow:visible;enable-background:new    ;" width="609" height="609" xlink:href="27F196CB.jpg"  transform="matrix(0.9984 0 0 0.9984 -254.5 -254.5)">
	</image>
</g>
<g id="Capa_3">
	<path class="st2" d="M100,50c0-27.6-22.4-50-50-50S0,22.4,0,50"/>
	
		<image style="display:none;overflow:visible;enable-background:new    ;" width="1305" height="1305" xlink:href="27F196CD.jpg"  transform="matrix(0.1213 0 0 0.1213 -25.4348 -35.6739)">
	</image>
	<path class="st3" d="M100,38.5H0v15.2c0,4.3,3.4,7.8,7.5,7.8h85c4.1,0,7.5-3.6,7.5-7.8V38.5z"/>
	<path class="st2" d="M92.5,55.5h-85C3.4,55.5,0,58.8,0,63l0,0c0,4.1,3.4,7.5,7.5,7.5h85c4.1,0,7.5-3.4,7.5-7.5l0,0
		C100,58.8,96.6,55.5,92.5,55.5z"/>
</g>
</svg>
