<?xml version="1.0" encoding="utf-8"?>
<!-- Generator: Adobe Illustrator 24.1.1, SVG Export Plug-In . SVG Version: 6.00 Build 0)  -->
<svg version="1.1" xmlns="http://www.w3.org/2000/svg" xmlns:xlink="http://www.w3.org/1999/xlink" x="0px" y="0px"
	 viewBox="0 0 100 100" style="enable-background:new 0 0 100 100;" xml:space="preserve">
<style type="text/css">
	.st0{display:none;}
	.st1{display:inline;fill:#FF2D0A;}
	.st2{display:none;fill:#FF3DFF;}
	.st3{fill:#FFFFFF;}
</style>
<g id="Capa_1" class="st0">
	<path class="st1" d="M103.1,100H-3.4c-4.1,0-7.4-3.3-7.4-7.4V7.4c0-4.1,3.3-7.4,7.4-7.4h106.5c4.1,0,7.4,3.3,7.4,7.4v85.2
		C110.5,96.7,107.2,100,103.1,100z"/>
</g>
<g id="Capa_2" class="st0">
	
		<image style="overflow:visible;" width="612" height="499" xlink:href="27F196C3.jpg"  transform="matrix(0.2004 0 0 0.2004 -12.5217 0)">
	</image>
	
		<image style="display:inline;overflow:visible;" width="608" height="608" xlink:href="27F196C1.jpg"  transform="matrix(1 0 0 1 -254.5 -254.5)">
	</image>
</g>
<g id="Capa_3">
	<path class="st2" d="M100,50c0-27.6-22.4-50-50-50S0,22.4,0,50"/>
	
		<image style="display:none;overflow:visible;" width="1300" height="1300" xlink:href="27F196C7.jpg"  transform="matrix(0.1218 0 0 0.1218 -25.4348 -35.6739)">
	</image>
	<path class="st3" d="M100,40H0l0,12.5C0,56.6,3.4,60,7.5,60h85c4.1,0,7.5-3.4,7.5-7.5V40z"/>
	<path class="st2" d="M92.5,55.5h-85C3.4,55.5,0,58.8,0,63v0c0,4.1,3.4,7.5,7.5,7.5h85c4.1,0,7.5-3.4,7.5-7.5v0
		C100,58.8,96.6,55.5,92.5,55.5z"/>
</g>
</svg>
