<?xml version="1.0" encoding="utf-8"?>
<!-- Generator: Adobe Illustrator 24.1.1, SVG Export Plug-In . SVG Version: 6.00 Build 0)  -->
<svg version="1.1" id="Capa_1" xmlns="http://www.w3.org/2000/svg" xmlns:xlink="http://www.w3.org/1999/xlink" x="0px" y="0px"
	 viewBox="0 0 100 100" style="enable-background:new 0 0 100 100;" xml:space="preserve">
<style type="text/css">
	.st0{fill:#FFFFFF;}
	.st1{display:none;}
	.st2{display:inline;fill:#FFFFFF;}
	.st3{display:none;fill:#41D400;}
</style>
<path class="st0" d="M110.5,95c0,2.7-3.3,5-7.4,5H-3.4c-4.1,0-7.4-2.2-7.4-5"/>
<g id="Capa_2_1_" class="st1">
	<path class="st2" d="M85.8,54.4L42,98.2c-2.4,2.4-6.3,2.4-8.7,0L15.2,80.1c-2.4-2.4-2.4-6.3,0-8.7L36.6,50L15.2,28.6
		c-2.4-2.4-2.4-6.3,0-8.7L33.2,1.8c2.4-2.4,6.3-2.4,8.7,0l43.8,43.8c0.9,0.9,1.5,2.1,1.7,3.3C87.8,50.8,87.3,52.9,85.8,54.4z"/>
</g>
<path class="st3" d="M103.7,100H-3.6c-4,0-7.3-3.3-7.3-7.3l0,0c0-33,26.7-59.7,59.7-59.7h2.5c33,0,59.7,26.7,59.7,59.7l0,0
	C111,96.7,107.7,100,103.7,100z"/>
</svg>
