<?xml version="1.0" encoding="utf-8"?>
<!-- Generator: Adobe Illustrator 24.1.1, SVG Export Plug-In . SVG Version: 6.00 Build 0)  -->
<svg version="1.1" xmlns="http://www.w3.org/2000/svg" xmlns:xlink="http://www.w3.org/1999/xlink" x="0px" y="0px"
	 viewBox="0 0 655 540" style="enable-background:new 0 0 655 540;" xml:space="preserve">
<style type="text/css">
	.st0{display:none;}
	.st1{fill:#FFFFFF;}
</style>
<g id="Capa_1" class="st0">
	<path class="st1" d="M44.9,2259h-578.8c-21,0-38.1-17.1-38.1-38.1v0c0-172.3,139.6-311.9,311.9-311.9h31.2
		C-56.6,1909,83,2048.6,83,2220.9v0C83,2241.9,65.9,2259,44.9,2259z"/>
	<path class="st1" d="M-284,768h-575c-22.1,0-40-17.9-40-40V268c0-22.1,17.9-40,40-40h575c22.1,0,40,17.9,40,40v460
		C-244,750.1-261.9,768-284,768z"/>
	<path class="st1" d="M-284,1352h-575c-22.1,0-40-17.9-40-40V852c0-22.1,17.9-40,40-40h575c22.1,0,40,17.9,40,40v460
		C-244,1334.1-261.9,1352-284,1352z"/>
	<path class="st1" d="M-283,1945h-575c-22.1,0-40-17.9-40-40v-460c0-22.1,17.9-40,40-40h575c22.1,0,40,17.9,40,40v460
		C-243,1927.1-260.9,1945-283,1945z"/>
	<path class="st1" d="M-284,2258.9h-575c-22.1,0-40-17.9-40-40v-190c0-22.1,17.9-40,40-40h575c22.1,0,40,17.9,40,40v190
		C-244,2241-261.9,2258.9-284,2258.9z"/>
</g>
<g id="Capa_2">
	<path class="st1" d="M460.1,270.6L317.8,412.8c-7.8,7.8-20.5,7.8-28.3,0l-58.7-58.7c-7.8-7.8-7.8-20.5,0-28.3l69.6-69.6l-69.8-69.7
		c-7.8-7.8-7.8-20.5,0-28.3l58.7-58.7c7.8-7.8,20.5-7.8,28.3,0l142.2,142.2c3,3,4.9,6.8,5.6,10.8C466.8,258.8,465,265.6,460.1,270.6
		z"/>
</g>
</svg>
