<?xml version="1.0" encoding="utf-8"?>
<!-- Generator: Adobe Illustrator 24.1.1, SVG Export Plug-In . SVG Version: 6.00 Build 0)  -->
<svg version="1.1" id="Capa_1" xmlns="http://www.w3.org/2000/svg" xmlns:xlink="http://www.w3.org/1999/xlink" x="0px" y="0px"
	 viewBox="0 0 100 100" style="enable-background:new 0 0 100 100;" xml:space="preserve">
<style type="text/css">
	.st0{display:none;fill:#FFFFFF;}
	.st1{fill:#FFFFFF;}
</style>
<path class="st0" d="M103.1,100H-3.4c-4.1,0-7.4-1.7-7.4-3.7V53.7c0-2,3.3-3.7,7.4-3.7h106.5c4.1,0,7.4,1.7,7.4,3.7v42.6
	C110.5,98.3,107.2,100,103.1,100z"/>
<g id="Capa_2_1_">
	<path class="st1" d="M85.8,54.4L42,98.2c-2.4,2.4-6.3,2.4-8.7,0L15.2,80.1c-2.4-2.4-2.4-6.3,0-8.7L36.6,50L15.2,28.6
		c-2.4-2.4-2.4-6.3,0-8.7L33.2,1.8c2.4-2.4,6.3-2.4,8.7,0l43.8,43.8c0.9,0.9,1.5,2.1,1.7,3.3C87.8,50.8,87.3,52.9,85.8,54.4z"/>
</g>
</svg>
