<?xml version="1.0" encoding="utf-8"?>
<!-- Generator: Adobe Illustrator 24.1.1, SVG Export Plug-In . SVG Version: 6.00 Build 0)  -->
<svg version="1.1" id="Capa_1" xmlns="http://www.w3.org/2000/svg" xmlns:xlink="http://www.w3.org/1999/xlink" x="0px" y="0px"
	 viewBox="0 0 100 100" style="enable-background:new 0 0 100 100;" xml:space="preserve">
<style type="text/css">
	.st0{display:none;}
	.st1{display:inline;fill:#FFFFFF;}
	.st2{display:inline;}
	.st3{fill:#FF5FFF;}
	.st4{display:inline;fill:#C96600;}
	.st5{fill:#FFFFFF;}
</style>
<g id="Capa_1_1_" class="st0">
	<path class="st1" d="M103.1,100H-3.4c-4.1,0-7.4-1.7-7.4-3.7V53.7c0-2,3.3-3.7,7.4-3.7h106.5c4.1,0,7.4,1.7,7.4,3.7v42.6
		C110.5,98.3,107.2,100,103.1,100z"/>
	<g id="Capa_2_1_" class="st2">
		<path class="st3" d="M84.9,53l-47,47L11.8,73.9l25.1-25.1L16,27.9c-2.3-2.3-2.3-6.1,0-8.5L33.6,1.8c2.3-2.3,6.1-2.3,8.5,0
			l42.7,42.7c0.9,0.9,1.5,2,1.7,3.2C86.8,49.5,86.4,51.6,84.9,53z"/>
	</g>
</g>
<g id="Capa_2_2_" class="st0">
	<rect x="75.4" y="19.1" transform="matrix(0.6726 -0.74 0.74 0.6726 -2.8131 68.0382)" class="st4" width="0.1" height="36.2"/>
	<polygon class="st4" points="88.2,50 62.6,75.6 38.2,100 12.6,74.4 37.1,50 12.6,25.6 38.2,0 62.6,24.4 	"/>
	
		<rect x="57.4" y="62.8" transform="matrix(0.7071 -0.7071 0.7071 0.7071 -22.3125 71.7854)" class="st4" width="36.2" height="0.1"/>
</g>
<polygon class="st5" points="88.2,50 38.2,100 12.6,74.4 37,50 12.6,25.6 38.2,0 "/>
</svg>
